<?xml version="1.0" standalone="no"?>
<!DOCTYPE svg PUBLIC "-//W3C//DTD SVG 20010904//EN"
 "http://www.w3.org/TR/2001/REC-SVG-20010904/DTD/svg10.dtd">
<svg version="1.0" xmlns="http://www.w3.org/2000/svg"
 width="200.000000pt" height="200.000000pt" viewBox="0 0 200.000000 200.000000"
 preserveAspectRatio="xMidYMid meet">

<g transform="translate(0.000000,200.000000) scale(0.100000,-0.100000)"
fill="#000000" stroke="none">
<path d="M297 1329 c-59 -14 -115 -47 -162 -94 -137 -136 -137 -352 1 -489
154 -154 395 -132 483 45 48 97 39 193 -28 278 -35 43 -111 88 -167 96 l-39 7
0 81 c0 80 -1 82 -25 84 -14 1 -42 -3 -63 -8z m83 -248 c0 -78 0 -79 30 -91
66 -27 81 -101 31 -151 -25 -24 -38 -29 -79 -29 -140 0 -215 184 -119 289 33
35 78 61 110 61 l27 0 0 -79z"/>
<path d="M953 1231 c-29 -13 -48 -31 -59 -54 -45 -94 44 -183 163 -164 43 7
58 20 49 42 -5 13 -10 14 -27 4 -27 -14 -86 -5 -110 17 -28 25 -25 79 7 111
22 22 32 25 74 21 35 -4 50 -1 54 8 7 18 -5 24 -61 30 -35 3 -60 -1 -90 -15z"/>
<path d="M1343 1231 c-43 -20 -73 -62 -73 -103 0 -36 37 -88 75 -104 59 -24
155 -13 155 19 0 11 -15 14 -61 13 -52 -1 -63 2 -80 23 -27 33 -24 77 7 108
22 22 32 25 74 21 35 -4 50 -1 54 8 7 18 -5 24 -61 30 -35 3 -60 -1 -90 -15z"/>
<path d="M1626 1240 c-80 -24 -113 -108 -69 -177 26 -40 118 -64 181 -47 15 4
22 14 22 31 0 20 -3 22 -19 13 -43 -23 -110 -5 -131 35 -16 29 -6 68 23 96 18
17 31 20 75 17 39 -4 52 -1 52 9 0 28 -74 41 -134 23z"/>
<path d="M1166 1128 l1 -113 27 -3 26 -3 0 115 0 116 -27 0 -28 0 1 -112z"/>
<path d="M990 924 c0 -26 -1 -26 -50 -22 l-50 5 0 -69 0 -69 50 7 50 7 0 -37
c0 -33 3 -37 23 -34 17 2 23 11 25 37 l3 33 50 -6 49 -7 0 66 c0 70 1 69 -62
66 -35 -3 -38 0 -38 23 0 21 -5 26 -25 26 -20 0 -25 -5 -25 -26z m0 -79 c0
-32 -2 -35 -30 -35 -26 0 -30 4 -30 28 0 35 6 42 37 42 20 0 23 -5 23 -35z
m108 -2 c3 -31 1 -33 -27 -33 -29 0 -31 3 -31 36 0 33 2 35 28 32 22 -2 28 -8
30 -35z"/>
<path d="M1240 931 c0 -10 -16 -29 -35 -42 -19 -13 -35 -27 -35 -32 0 -4 25
-4 55 -1 46 6 55 4 55 -9 0 -11 -11 -17 -37 -19 -52 -4 -56 -28 -4 -28 39 0
41 -2 41 -30 0 -34 -15 -40 -25 -10 -3 11 -13 20 -22 20 -10 0 -14 -6 -10 -20
4 -16 0 -20 -20 -20 -15 0 -23 -5 -21 -12 6 -17 226 -24 242 -8 8 8 4 12 -12
17 -17 4 -21 10 -17 24 5 14 1 19 -13 19 -11 0 -22 -9 -25 -20 -8 -31 -27 -24
-27 10 0 28 2 30 41 30 52 0 48 24 -4 28 -26 2 -37 8 -37 19 0 13 8 15 45 10
72 -10 82 1 32 33 -24 15 -47 35 -50 44 -5 12 -20 16 -62 16 -47 0 -55 -3 -55
-19z m98 -33 c3 -13 -4 -17 -30 -16 -43 1 -52 7 -37 24 16 20 63 14 67 -8z"/>
<path d="M1550 935 c0 -9 9 -15 23 -15 17 0 32 -13 55 -49 36 -55 59 -69 79
-48 12 12 10 16 -11 31 -14 9 -35 34 -46 56 -19 37 -24 40 -60 40 -29 0 -40
-4 -40 -15z"/>
<path d="M1750 935 c0 -12 16 -15 85 -15 l85 0 0 -95 c0 -91 -1 -95 -22 -95
-16 0 -19 -3 -11 -11 6 -6 26 -9 44 -7 l34 3 3 109 c2 81 -1 112 -10 118 -7 4
-57 8 -110 8 -81 0 -98 -3 -98 -15z"/>
<path d="M1500 899 c0 -7 -11 -27 -25 -45 -29 -38 -30 -44 -11 -44 18 0 78 68
73 83 -5 16 -37 21 -37 6z"/>
<path d="M1732 888 c3 -9 29 -13 86 -13 111 0 107 19 -4 23 -67 2 -85 0 -82
-10z"/>
<path d="M1527 803 c-54 -82 -52 -87 34 -79 47 4 76 3 85 -5 8 -6 19 -7 28 -2
13 7 12 14 -10 51 -14 23 -29 42 -34 42 -16 0 -22 -21 -10 -35 11 -13 6 -15
-29 -15 -22 0 -41 3 -41 6 0 3 9 17 20 31 23 30 25 49 7 56 -9 3 -28 -16 -50
-50z"/>
<path d="M1750 794 l0 -56 31 6 c17 3 49 6 71 6 l39 0 -3 48 -3 47 -67 3 -68
3 0 -57z m100 6 c0 -16 -7 -20 -30 -20 -23 0 -30 4 -30 20 0 16 7 20 30 20 23
0 30 -4 30 -20z"/>
</g>
</svg>
