<svg xmlns="http://www.w3.org/2000/svg" width="80.565" height="20.021" viewBox="0 0 80.565 20.021">
    <defs>
        <linearGradient id="linear-gradient" x1=".412" x2=".548" y1="-.142" y2=".895" gradientUnits="objectBoundingBox">
            <stop offset="0" stop-color="#006ef2"/>
            <stop offset="1" stop-color="#559aff"/>
        </linearGradient>
        <style>
            .cls-4{fill:#fff}
        </style>
    </defs>
    <g id="Group_6916" transform="translate(-100.24 -401)">
        <g id="Group_6912" transform="translate(100.24 401)">
            <path id="Path_1641" fill="url(#linear-gradient)" d="M231.822 519.878a1.342 1.342 0 0 1-1.273 1.341h-4.621a1.34 1.34 0 0 1-1.1-.812l-.035-.092c0-.013-.01-.025-.014-.038a13.523 13.523 0 0 0-3.447-5.084c-.031-.03-.062-.06-.095-.086a1.349 1.349 0 0 0-1.485-.151c.257-.155.52-.3.788-.442a.014.014 0 0 1 .007 0 13.591 13.591 0 0 1 8.708-1.28l.065.011h.009a1.344 1.344 0 0 1 1 .879l.051.188 1.383 5.168a1.331 1.331 0 0 1 .035.133 1.42 1.42 0 0 1 .024.265z" transform="translate(-207.16 -501.198)"/>
            <path id="Path_1642" fill="#006ef2" d="M119.205 401.032a1.328 1.328 0 0 0-.647.52l-.008.011a1.166 1.166 0 0 0-.065.114l-.008.014-.743 1.288-5.863 10.156-.069.119-3.171 5.491-.872 1.51v.006l-.032.055c-.01.02-.021.038-.032.057l-.033.057a1.341 1.341 0 0 1-1.043.59h-5.033a1.341 1.341 0 0 1-.992-2.245.166.166 0 0 1 .023-.023l.045-.045a.17.17 0 0 1 .023-.023l7.058-7.059.454-.455 9.707-9.708.124-.124a1.334 1.334 0 0 1 .852-.338h.038a1.327 1.327 0 0 1 .287.032z" transform="translate(-100.24 -401)"/>
            <path id="Path_1643" fill="#559aff" d="M194.637 414.2a1.344 1.344 0 0 0-1-.879h-.008l-.065-.011a13.593 13.593 0 0 0-8.708 1.28h-.007c-.268.139-.531.287-.788.442a.038.038 0 0 1-.01.006l-.11.068-.011.007a13.626 13.626 0 0 0-4.071 3.91l3.171-5.491.069-.119 5.863-10.156.737-1.276a.048.048 0 0 0 .006-.013l.008-.014.073-.126a1.328 1.328 0 0 1 .647-.52 1.344 1.344 0 0 1 .989.911.824.824 0 0 1 .024.088l.34 1.27 2.66 9.924z" transform="translate(-171.472 -401.276)"/>
        </g>
        <g id="Group_6915" transform="translate(129.333 401.439)">
            <g id="Group_6913">
                <path id="Path_1644" d="M376.341 407.22h3.877v9.553h6.051v3.121h-9.929z" class="cls-4" transform="translate(-376.341 -407.004)"/>
                <path id="Path_1645" d="M474.507 411.731a6.571 6.571 0 0 1 1.712-4.833 6.408 6.408 0 0 1 4.768-1.729 6.522 6.522 0 0 1 4.827 1.7 6.442 6.442 0 0 1 1.695 4.759 7.869 7.869 0 0 1-.74 3.644 5.306 5.306 0 0 1-2.14 2.213 7.007 7.007 0 0 1-3.488.791 7.957 7.957 0 0 1-3.514-.683 5.31 5.31 0 0 1-2.255-2.161 7.231 7.231 0 0 1-.865-3.701zm3.877.017a4.28 4.28 0 0 0 .706 2.758 2.654 2.654 0 0 0 3.856.017 4.725 4.725 0 0 0 .685-2.948 3.944 3.944 0 0 0-.715-2.615 2.432 2.432 0 0 0-1.939-.826 2.345 2.345 0 0 0-1.883.839 4.294 4.294 0 0 0-.71 2.775z" class="cls-4" transform="translate(-464.163 -405.169)"/>
                <path id="Path_1646" d="M618.2 419.894V407.22h6.463a9.3 9.3 0 0 1 2.748.311 2.928 2.928 0 0 1 1.532 1.154 3.594 3.594 0 0 1-1.088 5.114 4.655 4.655 0 0 1-1.362.5 3.853 3.853 0 0 1 1.009.467 3.932 3.932 0 0 1 .62.666 4.989 4.989 0 0 1 .543.787l1.878 3.672h-4.381l-2.073-3.873a2.951 2.951 0 0 0-.7-.977 1.616 1.616 0 0 0-.95-.294h-.339v5.144zm3.895-7.538h1.635a5.785 5.785 0 0 0 1.027-.173 1.024 1.024 0 0 0 .629-.4 1.293 1.293 0 0 0-.141-1.677 2.313 2.313 0 0 0-1.447-.328h-1.7z" class="cls-4" transform="translate(-592.719 -407.004)"/>
                <path id="Path_1647" d="M744.152 417.8h-4.4l-.612 2.092h-3.959l4.719-12.672h4.229l4.715 12.674h-4.06zm-.8-2.741l-1.385-4.556-1.37 4.556z" class="cls-4" transform="translate(-697.368 -407.004)"/>
            </g>
            <g id="Group_6914" transform="translate(.068 15.674)">
                <path id="Path_1648" d="M378.033 558.045v-2.952h-1.044v-.6h2.8v.6h-1.041v2.952z" class="cls-4" transform="translate(-376.989 -554.431)"/>
                <path id="Path_1649" d="M417.191 558.045v-3.553h2.609v.6h-1.9v.788h1.766v.6H417.9v.967h1.965v.6z" class="cls-4" transform="translate(-412.955 -554.431)"/>
                <path id="Path_1650" d="M458.813 556.224l.689.22a1.562 1.562 0 0 1-.527.864 1.644 1.644 0 0 1-2.086-.2 1.861 1.861 0 0 1-.451-1.322 1.954 1.954 0 0 1 .453-1.378 1.547 1.547 0 0 1 1.193-.491 1.455 1.455 0 0 1 1.048.385 1.408 1.408 0 0 1 .36.654l-.7.17a.754.754 0 0 0-.26-.436.741.741 0 0 0-.481-.16.8.8 0 0 0-.635.284 1.4 1.4 0 0 0-.244.918 1.5 1.5 0 0 0 .24.96.776.776 0 0 0 .624.286.707.707 0 0 0 .487-.182 1.057 1.057 0 0 0 .29-.572z" class="cls-4" transform="translate(-448.066 -553.917)"/>
                <path id="Path_1651" d="M500.647 558.045v-3.553h.71v1.4h1.392v-1.4h.71v3.553h-.71v-1.553h-1.392v1.553z" class="cls-4" transform="translate(-487.617 -554.431)"/>
                <path id="Path_1652" d="M543.7 558.045v-3.553h.691l1.44 2.372v-2.372h.66v3.553h-.713l-1.418-2.317v2.317z" class="cls-4" transform="translate(-526.131 -554.431)"/>
                <path id="Path_1653" d="M585.266 555.776a2.28 2.28 0 0 1 .161-.911 1.672 1.672 0 0 1 .328-.487 1.369 1.369 0 0 1 .455-.32 1.914 1.914 0 0 1 .758-.141 1.643 1.643 0 0 1 1.244.487 2.194 2.194 0 0 1 0 2.7 1.836 1.836 0 0 1-2.486 0 1.845 1.845 0 0 1-.46-1.328zm.732-.024a1.341 1.341 0 0 0 .276.915.942.942 0 0 0 1.4 0 1.368 1.368 0 0 0 .272-.927 1.344 1.344 0 0 0-.265-.911.975.975 0 0 0-1.412 0 1.352 1.352 0 0 0-.269.922z" class="cls-4" transform="translate(-563.319 -553.917)"/>
                <path id="Path_1654" d="M632.414 558.292v-3.523h.71v2.925h1.766v.6z" class="cls-4" transform="translate(-605.499 -554.679)"/>
                <path id="Path_1655" d="M668.677 555.776a2.281 2.281 0 0 1 .161-.911 1.664 1.664 0 0 1 .328-.487 1.369 1.369 0 0 1 .455-.32 1.915 1.915 0 0 1 .758-.141 1.643 1.643 0 0 1 1.244.487 2.194 2.194 0 0 1 0 2.7 1.63 1.63 0 0 1-1.238.486 1.647 1.647 0 0 1-1.248-.484 1.846 1.846 0 0 1-.46-1.33zm.732-.024a1.34 1.34 0 0 0 .276.915.943.943 0 0 0 1.4 0 1.367 1.367 0 0 0 .272-.927 1.343 1.343 0 0 0-.265-.911.975.975 0 0 0-1.412 0 1.352 1.352 0 0 0-.271.922z" class="cls-4" transform="translate(-637.942 -553.917)"/>
                <path id="Path_1656" d="M716.24 556.224v-.6h1.531v1.415a1.925 1.925 0 0 1-.647.384 2.331 2.331 0 0 1-.858.166 1.91 1.91 0 0 1-.962-.234 1.481 1.481 0 0 1-.617-.669 2.18 2.18 0 0 1-.206-.946 2.063 2.063 0 0 1 .23-.986 1.56 1.56 0 0 1 .674-.662 1.8 1.8 0 0 1 .842-.177 1.668 1.668 0 0 1 1.023.278 1.255 1.255 0 0 1 .474.767l-.705.133a.752.752 0 0 0-.28-.413.84.84 0 0 0-.512-.151.958.958 0 0 0-.74.3 1.264 1.264 0 0 0-.275.885 1.4 1.4 0 0 0 .278.949.925.925 0 0 0 .73.316 1.211 1.211 0 0 0 .447-.089 1.526 1.526 0 0 0 .385-.214v-.451z" class="cls-4" transform="translate(-678.919 -553.917)"/>
                <path id="Path_1657" d="M761.036 558.045v-3.553h.71v3.553z" class="cls-4" transform="translate(-720.568 -554.431)"/>
                <path id="Path_1658" d="M783.524 558.045v-3.553h2.608v.6h-1.9v.788H786v.6h-1.766v.967h1.966v.6z" class="cls-4" transform="translate(-740.687 -554.431)"/>
                <path id="Path_1659" d="M822.246 556.374l.691-.068a.852.852 0 0 0 .253.516.76.76 0 0 0 .515.165.786.786 0 0 0 .517-.147.438.438 0 0 0 .174-.343.326.326 0 0 0-.073-.214.583.583 0 0 0-.256-.154q-.125-.044-.569-.155a1.918 1.918 0 0 1-.8-.351.928.928 0 0 1-.324-.715.918.918 0 0 1 .152-.508.957.957 0 0 1 .439-.36 1.747 1.747 0 0 1 .692-.124 1.475 1.475 0 0 1 1 .293 1.04 1.04 0 0 1 .351.783l-.71.032a.61.61 0 0 0-.2-.394.71.71 0 0 0-.45-.12.8.8 0 0 0-.485.128.259.259 0 0 0-.113.22.274.274 0 0 0 .106.216 1.856 1.856 0 0 0 .653.237 3.422 3.422 0 0 1 .766.256.992.992 0 0 1 .389.361 1.128 1.128 0 0 1-.028 1.138 1.009 1.009 0 0 1-.475.4 1.972 1.972 0 0 1-.766.13 1.513 1.513 0 0 1-1.024-.311 1.359 1.359 0 0 1-.425-.911z" class="cls-4" transform="translate(-775.329 -553.917)"/>
            </g>
        </g>
    </g>
</svg>
